HIERARCHY
ROOT Hips
{
  OFFSET -4.35178 90.3298 111.633
  CHANNELS 6 Xposition Yposition Zposition Zrotation Xrotation Yrotation
  JOINT LeftUpLeg
  {
    OFFSET 0.103456 1.85784 10.5485
    CHANNELS 6 Xposition Yposition Zposition Zrotation Xrotation Yrotation
    JOINT LeftLeg
    {
      OFFSET 43.5 -4.2e-05 0
      CHANNELS 6 Xposition Yposition Zposition Zrotation Xrotation Yrotation
      JOINT LeftFoot
      {
        OFFSET 42.3722 1.9e-05 0
        CHANNELS 6 Xposition Yposition Zposition Zrotation Xrotation Yrotation
        JOINT LeftToe
        {
          OFFSET 17.3 0 0
          CHANNELS 6 Xposition Yposition Zposition Zrotation Xrotation Yrotation
          End Site
          {
            OFFSET 0 0 0
          }
        }
      }
    }
  }
  JOINT RightUpLeg
  {
    OFFSET 0.103456 1.85782 -10.5485
    CHANNELS 6 Xposition Yposition Zposition Zrotation Xrotation Yrotation
    JOINT RightLeg
    {
      OFFSET 43.5 -2.7e-05 0
      CHANNELS 6 Xposition Yposition Zposition Zrotation Xrotation Yrotation
      JOINT RightFoot
      {
        OFFSET 42.3723 0 0
        CHANNELS 6 Xposition Yposition Zposition Zrotation Xrotation Yrotation
        JOINT RightToe
        {
          OFFSET 17.3 0 1.7e-05
          CHANNELS 6 Xposition Yposition Zposition Zrotation Xrotation Yrotation
          End Site
          {
            OFFSET 0 0 0
          }
        }
      }
    }
  }
  JOINT Spine
  {
    OFFSET 6.90197 -2.60373 0
    CHANNELS 6 Xposition Yposition Zposition Zrotation Xrotation Yrotation
    JOINT Spine1
    {
      OFFSET 12.5881 0 0
      CHANNELS 6 Xposition Yposition Zposition Zrotation Xrotation Yrotation
      JOINT Spine2
      {
        OFFSET 12.3432 -1.8e-05 0
        CHANNELS 6 Xposition Yposition Zposition Zrotation Xrotation Yrotation
        JOINT Neck
        {
          OFFSET 25.8329 2.3e-05 0
          CHANNELS 6 Xposition Yposition Zposition Zrotation Xrotation Yrotation
          JOINT Head
          {
            OFFSET 11.7666 0 0
            CHANNELS 6 Xposition Yposition Zposition Zrotation Xrotation Yrotation
            End Site
            {
              OFFSET 0 0 0
            }
          }
        }
        JOINT LeftShoulder
        {
          OFFSET 19.7459 -1.48035 6.0001
          CHANNELS 6 Xposition Yposition Zposition Zrotation Xrotation Yrotation
          JOINT LeftArm
          {
            OFFSET 11.2841 1.8e-05 -2e-05
            CHANNELS 6 Xposition Yposition Zposition Zrotation Xrotation Yrotation
            JOINT LeftForeArm
            {
              OFFSET 33 -1.3e-05 1.9e-05
              CHANNELS 6 Xposition Yposition Zposition Zrotation Xrotation Yrotation
              JOINT LeftHand
              {
                OFFSET 25.2 3.2e-05 1.1e-05
                CHANNELS 6 Xposition Yposition Zposition Zrotation Xrotation Yrotation
                End Site
                {
                  OFFSET 0 0 0
                }
              }
            }
          }
        }
        JOINT RightShoulder
        {
          OFFSET 19.7461 -1.48036 -6.00008
          CHANNELS 6 Xposition Yposition Zposition Zrotation Xrotation Yrotation
          JOINT RightArm
          {
            OFFSET 11.2841 0 0
            CHANNELS 6 Xposition Yposition Zposition Zrotation Xrotation Yrotation
            JOINT RightForeArm
            {
              OFFSET 33.0001 1.6e-05 0
              CHANNELS 6 Xposition Yposition Zposition Zrotation Xrotation Yrotation
              JOINT RightHand
              {
                OFFSET 25.1998 0.000123 0.000432
                CHANNELS 6 Xposition Yposition Zposition Zrotation Xrotation Yrotation
                End Site
                {
                  OFFSET 0 0 0
                }
              }
            }
          }
        }
      }
    }
  }
}
MOTION
Frames:	8
Frame Time:	0.0333333
4.83747 90.1876 111.617 23.6453 -84.4028 -64.4618 0.103456 1.85784 10.5485 3.78057 5.05234 -178.034 43.5 -4.2e-05 1e-05 -18.4409 -5.41415 -2.95944 42.3722 1.9e-05 0 77.7259 2.23117 -3.91014 17.3 0 3e-06 21.4546 -1e-06 0.003093 0.103456 1.85782 -10.5485 10.8667 -0.466504 175.484 43.5 -2.7e-05 4e-06 -6.37066 9.57477 3.53237 42.3723 0 1e-05 81.6103 11.4115 -6.41026 17.3 -6e-06 1.7e-05 21.4546 -1.9e-05 -0.003116 6.90197 -2.60373 -3e-06 7.12303 0.284647 0.207747 12.5881 1e-05 8e-06 4.22273 0.656989 0.397333 12.3432 -1.8e-05 -5e-06 3.89292 0.74475 0.365375 25.8329 2.3e-05 7e-06 4.63026 -3.0586 -0.76662 11.7666 -8e-06 -6e-06 -25.3798 -12.0131 10.0363 19.7459 -1.48035 6.0001 173.552 -8.18787 -104.487 11.2841 1.8e-05 -2e-05 -3.21125 -33.5428 28.0695 33 -1.3e-05 1.9e-05 -12.5052 8.65015 -18.1134 25.2 3.2e-05 1.1e-05 1.37345 30.2782 2.14003 19.7461 -1.48036 -6.00008 -171.561 -6.60192 81.6108 11.2841 0 -1e-06 25.4006 6.06265 -2.61961 33.0001 1.6e-05 -1e-06 -38.8655 9.02774 23.9884 25.1998 0.000123 0.000432 19.9983 -10.7026 6.56075 
4.83731 90.1877 111.635 23.6446 -84.4026 -64.4626 0.103456 1.85784 10.5485 3.76997 5.04332 -178.031 43.5 -4.2e-05 1e-05 -18.3731 -5.40909 -2.95941 42.3722 1.9e-05 7.10543e-15 77.6858 2.21697 -3.9101 17.3 7.10543e-15 3e-06 21.4546 -1e-06 0.003093 0.103456 1.85782 -10.5485 10.8101 -0.475517 175.473 43.5 -2.7e-05 4e-06 -6.39374 9.56823 3.53231 42.3723 1.42109e-14 1e-05 81.595 11.4032 -6.39789 17.3 -6e-06 1.7e-05 21.4546 -1.9e-05 -0.003116 6.90197 -2.60373 -3e-06 7.12303 0.284647 0.207747 12.5881 1e-05 8e-06 4.22273 0.656989 0.397333 12.3432 -1.8e-05 -5e-06 3.89292 0.74475 0.365375 25.8329 2.3e-05 7e-06 4.64041 -3.07773 -0.770066 11.7666 -8e-06 -6e-06 -25.3541 -12.0123 10.0105 19.7459 -1.48035 6.0001 173.558 -8.14817 -104.496 11.2841 1.8e-05 -2e-05 -3.11437 -33.6239 28.1669 33 -1.3e-05 1.9e-05 -12.5491 8.66444 -18.1254 25.2 3.2e-05 1.1e-05 1.3603 30.277 2.1397 19.7461 -1.48036 -6.00008 -171.543 -6.63102 81.6338 11.2841 0 -1e-06 25.3914 6.11022 -2.70875 33.0001 1.6e-05 -1e-06 -38.8491 9.02082 23.9827 25.1998 0.000123 0.000432 19.9942 -10.7031 6.53854 
4.83849 90.1899 111.716 23.6927 -84.4112 -64.4201 0.103456 1.85784 10.5485 3.74845 5.02889 -178.02 43.5 -4.2e-05 1e-05 -18.2882 -5.39424 -2.96482 42.3722 1.9e-05 0 77.6222 2.18868 -3.92169 17.3 -7.10543e-15 3e-06 21.4546 -1e-06 0.003093 0.103456 1.85782 -10.5485 10.6835 -0.518862 175.485 43.5 -2.7e-05 4e-06 -6.51124 9.54054 3.53202 42.3723 0 1e-05 81.5883 11.3724 -6.38573 17.3 -6e-06 1.7e-05 21.4546 -1.9e-05 -0.003116 6.90197 -2.60373 -3e-06 7.12531 0.284647 0.207747 12.5881 1e-05 8e-06 4.22723 0.656989 0.397333 12.3432 -1.8e-05 -5e-06 3.89734 0.74475 0.365375 25.8329 2.3e-05 7e-06 4.63774 -3.07535 -0.791042 11.7666 -8e-06 -6e-06 -25.2906 -11.9769 10.0033 19.7459 -1.48035 6.0001 173.586 -8.10391 -104.5 11.2841 1.8e-05 -2e-05 -3.0565 -33.6533 28.2368 33 -1.3e-05 1.9e-05 -12.5979 8.66368 -18.115 25.2 3.2e-05 1.1e-05 1.32021 30.2425 2.18706 19.7461 -1.48036 -6.00008 -171.521 -6.65069 81.6404 11.2841 0 -1e-06 25.3686 6.1245 -2.77759 33.0001 1.6e-05 -1e-06 -38.802 8.99082 23.9725 25.1998 0.000123 0.000432 19.9948 -10.7029 6.51471 
4.83979 90.1917 111.8 23.7875 -84.4199 -64.3341 0.103456 1.85784 10.5485 3.71775 5.00143 -177.992 43.5 -4.2e-05 1e-05 -18.1956 -5.3688 -2.96837 42.3722 1.9e-05 0 77.5486 2.12778 -3.9395 17.3 0 3e-06 21.4546 -1e-06 0.003093 0.103456 1.85782 -10.5485 10.5567 -0.544939 175.512 43.5 -2.7e-05 4e-06 -6.61858 9.5177 3.53178 42.3723 1.42109e-14 1e-05 81.5805 11.3386 -6.38806 17.3 -6e-06 1.7e-05 21.4546 -1.9e-05 -0.003116 6.90197 -2.60373 -3e-06 7.13284 0.284647 0.204461 12.5881 1e-05 8e-06 4.24235 0.656989 0.390895 12.3432 -1.8e-05 -5e-06 3.91253 0.74475 0.35913 25.8329 2.3e-05 7e-06 4.62955 -3.0493 -0.812745 11.7666 -8e-06 -6e-06 -25.2289 -11.9393 10.0057 19.7459 -1.48035 6.0001 173.604 -8.06462 -104.496 11.2841 1.8e-05 -2e-05 -3.05811 -33.6438 28.2307 33 -1.3e-05 1.9e-05 -12.6832 8.6574 -18.1028 25.2 3.2e-05 1.1e-05 1.29178 30.229 2.19748 19.7461 -1.48036 -6.00008 -171.484 -6.66102 81.6345 11.2841 0 -1e-06 25.3353 6.12648 -2.90375 33.0001 1.6e-05 -1e-06 -38.7455 8.91876 23.9887 25.1998 0.000123 0.000432 19.9437 -10.7349 6.54136 
4.88331 90.193 111.89 24.0161 -84.4331 -64.112 0.103456 1.85784 10.5485 3.65941 4.99961 -177.951 43.5 -4.2e-05 1e-05 -18.1182 -5.34818 -2.9772 42.3722 1.9e-05 0 77.4932 2.10716 -3.95337 17.3 -7.10543e-15 3e-06 21.4546 -1e-06 0.003093 0.103456 1.85782 -10.5485 10.4543 -0.563642 175.54 43.5 -2.7e-05 4e-06 -6.65838 9.51001 3.53019 42.3723 -1.42109e-14 1e-05 81.5518 11.3324 -6.37563 17.3 -6e-06 1.7e-05 21.4546 -1.9e-05 -0.003116 6.90197 -2.60373 -3e-06 7.15086 0.284647 0.196086 12.5881 1e-05 8e-06 4.27853 0.656991 0.374314 12.3432 -1.8e-05 -5e-06 3.9488 0.744751 0.342828 25.8329 2.3e-05 7e-06 4.58223 -3.00644 -0.838619 11.7666 -8e-06 -6e-06 -25.2127 -11.8892 10.0354 19.7459 -1.48035 6.0001 173.627 -8.0493 -104.44 11.2841 1.8e-05 -2e-05 -3.0102 -33.5438 28.2044 33 -1.3e-05 1.9e-05 -12.9964 8.57222 -18.0666 25.2 3.2e-05 1.1e-05 1.25866 30.1902 2.19223 19.7461 -1.48036 -6.00008 -171.439 -6.66041 81.5887 11.2841 0 -1e-06 25.242 6.08271 -3.08175 33.0001 1.6e-05 -1e-06 -38.652 8.76836 24.0287 25.1998 0.000123 0.000432 19.8057 -10.8038 6.60794 
4.94296 90.1947 111.991 24.2977 -84.454 -63.8823 0.103456 1.85784 10.5485 3.50411 4.95362 -177.851 43.5 -4.2e-05 1e-05 -18.2222 -5.32494 -2.98721 42.3722 1.9e-05 0 77.5388 2.0631 -3.9491 17.3 -7.10543e-15 3e-06 21.4546 -1e-06 0.003093 0.103456 1.85782 -10.5485 10.3543 -0.561912 175.627 43.5 -2.7e-05 4e-06 -6.66787 9.50725 3.51986 42.3723 0 1e-05 81.543 11.3482 -6.34227 17.3 -6e-06 1.7e-05 21.4546 -1.9e-05 -0.003116 6.90197 -2.60373 -3e-06 7.18804 0.284646 0.218208 12.5881 1e-05 8e-06 4.35296 0.656987 0.419026 12.3432 -1.8e-05 -5e-06 4.02312 0.744748 0.387915 25.8329 2.3e-05 7e-06 4.44501 -3.06355 -0.75632 11.7666 -8e-06 -6e-06 -25.2359 -11.9056 9.90412 19.7459 -1.48035 6.0001 173.589 -8.15007 -104.278 11.2841 1.8e-05 -2e-05 -2.87336 -33.5722 28.4417 33 -1.3e-05 1.9e-05 -13.5584 8.72817 -18.0494 25.2 3.2e-05 1.1e-05 1.14236 30.239 2.21243 19.7461 -1.48036 -6.00008 -171.252 -6.72713 81.2109 11.2841 0 -1e-06 25.446 5.68552 -2.71287 33.0001 1.6e-05 -1e-06 -39.2382 8.96756 23.8811 25.1998 0.000123 0.000432 19.798 -10.6845 6.78855 
5.00433 90.1977 112.11 25.0323 -84.4432 -63.1652 0.103456 1.85784 10.5485 3.25541 4.86818 -177.779 43.5 -4.2e-05 1e-05 -18.5119 -5.27187 -2.99576 42.3722 1.9e-05 0 77.5725 2.05953 -3.9045 17.3 0 3e-06 21.4546 -1e-06 0.003093 0.103456 1.85782 -10.5485 10.1866 -0.588804 175.695 43.5 -2.7e-05 4e-06 -6.82496 9.49786 3.49716 42.3723 0 1e-05 81.5861 11.3654 -6.3441 17.3 -6e-06 1.7e-05 21.4546 -1.9e-05 -0.003116 6.90197 -2.60373 -3e-06 7.24144 0.284646 0.216347 12.5881 1e-05 8e-06 4.45955 0.656259 0.415313 12.3432 -1.8e-05 -5e-06 4.12974 0.745386 0.384455 25.8329 2.3e-05 7e-06 4.3053 -3.07402 -0.766377 11.7666 -8e-06 -6e-06 -25.1487 -11.8844 9.87819 19.7459 -1.48035 6.0001 173.697 -8.12339 -104.01 11.2841 1.8e-05 -2e-05 -2.75203 -33.2858 28.5856 33 -1.3e-05 1.9e-05 -14.5936 8.74766 -17.8896 25.2 3.2e-05 1.1e-05 0.791571 30.1142 2.40852 19.7461 -1.48036 -6.00008 -171.209 -6.77739 81.0852 11.2841 0 -1e-06 25.3945 5.71404 -3.02937 33.0001 1.6e-05 -1e-06 -39.3176 8.90553 23.8648 25.1998 0.000123 0.000432 19.6551 -10.6703 6.79727 
5.05613 90.2001 112.247 26.4318 -84.4144 -61.7603 0.103456 1.85784 10.5485 2.97566 4.82571 -177.756 43.5 -4.2e-05 1e-05 -18.7563 -5.2126 -2.98367 42.3722 1.9e-05 0 77.532 2.16352 -3.84416 17.3 -7.10543e-15 3e-06 21.4546 -1e-06 0.003093 0.103456 1.85782 -10.5485 10.0287 -0.583259 175.747 43.5 -2.7e-05 4e-06 -6.92891 9.52855 3.47796 42.3723 0 1e-05 81.6099 11.3541 -6.44465 17.3 -6e-06 1.7e-05 21.4546 -1.9e-05 -0.003116 6.90197 -2.60373 -3e-06 7.2976 0.276707 0.206442 12.5881 1e-05 8e-06 4.57217 0.640496 0.39651 12.3432 -1.8e-05 -5e-06 4.24265 0.730194 0.366856 25.8329 2.3e-05 7e-06 4.1589 -3.04357 -0.812055 11.7666 -8e-06 -6e-06 -24.936 -11.8174 9.9096 19.7459 -1.48035 6.0001 173.882 -8.04457 -103.685 11.2841 1.8e-05 -2e-05 -2.64118 -32.9007 28.8765 33 -1.3e-05 1.9e-05 -15.6066 8.78135 -17.6517 25.2 3.2e-05 1.1e-05 0.171091 29.813 2.86177 19.7461 -1.48036 -6.00008 -171.265 -6.85494 81.0079 11.2841 0 -1e-06 25.1874 5.88908 -3.56946 33.0001 1.6e-05 -1e-06 -39.0513 8.83448 23.9032 25.1998 0.000123 0.000432 19.5139 -10.6689 6.78342 
